<?xml version="1.0" encoding="UTF-8"?>
<svg version="1.1" xmlns="http://www.w3.org/2000/svg" width="180" height="180">
<path d="M0 0 C59.4 0 118.8 0 180 0 C180 59.4 180 118.8 180 180 C120.6 180 61.2 180 0 180 C0 120.6 0 61.2 0 0 Z " fill="#FDFDFD" transform="translate(0,0)"/>
<path d="M0 0 C5.52437841 0.8019259 8.25581509 3.44329613 11.875 7.5625 C15.63281501 12.7535842 17.00950901 19.13150696 18.79833984 25.19580078 C20.5623206 30.99443272 22.92944766 36.36295132 25.63989258 41.77758789 C27.03806766 44.5960574 27.875 46.36532135 27.875 49.5625 C30.37032494 49.19377842 31.56626017 48.92567744 33.2277832 46.97119141 C33.62312256 46.29233887 34.01846191 45.61348633 34.42578125 44.9140625 C34.87373047 44.16084717 35.32167969 43.40763184 35.78320312 42.6315918 C36.24662109 41.8250415 36.71003906 41.01849121 37.1875 40.1875 C38.16197604 38.53990041 39.13723541 36.89276387 40.11328125 35.24609375 C40.58459473 34.44284668 41.0559082 33.63959961 41.54150391 32.81201172 C43.74829315 29.08931746 46.09418833 25.46221011 48.4375 21.82421875 C49.43558628 20.25386017 50.40927542 18.66783407 51.36328125 17.0703125 C52.86417033 14.5804655 54.44170086 12.16318983 56.0625 9.75 C56.59230469 8.95980469 57.12210937 8.16960938 57.66796875 7.35546875 C58.06628906 6.76378906 58.46460937 6.17210937 58.875 5.5625 C60.525 5.8925 62.175 6.2225 63.875 6.5625 C63.47344027 9.27302817 62.87075131 10.56758541 61.08984375 12.69921875 C58.4127912 16.16002918 56.59163608 19.76490822 54.6875 23.6875 C54.33236328 24.40292969 53.97722656 25.11835937 53.61132812 25.85546875 C52.19679895 28.72747295 50.88852225 31.52193325 49.875 34.5625 C49.215 34.5625 48.555 34.5625 47.875 34.5625 C47.7821875 36.0165625 47.7821875 36.0165625 47.6875 37.5 C47.01874201 42.44475603 44.44909304 46.37366224 41.875 50.5625 C42.70386719 50.40007812 43.53273437 50.23765625 44.38671875 50.0703125 C48.17602164 49.51867826 51.86896808 49.41204312 55.6875 49.4375 C56.739375 49.44040039 56.739375 49.44040039 57.8125 49.44335938 C62.90611901 49.48572774 67.83678685 49.84275526 72.875 50.5625 C73.37 52.5425 73.37 52.5425 73.875 54.5625 C73.23062988 54.6126123 72.58625977 54.66272461 71.92236328 54.71435547 C68.94771909 54.94923785 65.97389485 55.19331991 63 55.4375 C61.98679687 55.51613281 60.97359375 55.59476563 59.9296875 55.67578125 C54.21646306 56.15188329 48.71369668 56.87528528 43.12451172 58.16455078 C40.66872537 58.59899095 38.36390384 58.62778093 35.875 58.5625 C35.875 60.5425 35.875 62.5225 35.875 64.5625 C48.415 64.5625 60.955 64.5625 73.875 64.5625 C73.875 65.5525 73.875 66.5425 73.875 67.5625 C72.80016357 67.67843506 71.72532715 67.79437012 70.61791992 67.91381836 C66.63122407 68.34472018 62.64501369 68.77997685 58.65893555 69.21655273 C56.93347909 69.40491709 55.20789315 69.59209927 53.48217773 69.77807617 C51.00209138 70.04555744 48.52250134 70.31728288 46.04296875 70.58984375 C45.27099655 70.67217758 44.49902435 70.75451141 43.70365906 70.83934021 C40.61187695 71.18265548 37.83612195 71.57545935 34.875 72.5625 C32.96695324 75.47210047 32.54694709 78.06607695 32.28076172 81.49536133 C32.20082977 82.47350296 32.12089783 83.45164459 32.0385437 84.45942688 C31.92278488 86.03605354 31.92278488 86.03605354 31.8046875 87.64453125 C31.67575607 89.27584236 31.67575607 89.27584236 31.54421997 90.94010925 C31.36395584 93.24045065 31.18769459 95.54110871 31.01513672 97.84204102 C30.7517415 101.35179438 30.47660172 104.86046779 30.19921875 108.36914062 C30.02535073 110.60671725 29.85215178 112.84434599 29.6796875 115.08203125 C29.55785599 116.64954887 29.55785599 116.64954887 29.43356323 118.24873352 C28.86202501 125.89845682 28.86202501 125.89845682 28.875 133.5625 C29.205 133.8925 29.535 134.2225 29.875 134.5625 C29.91563832 136.22867115 29.917721 137.89638095 29.875 139.5625 C28.225 139.8925 26.575 140.2225 24.875 140.5625 C22.33777967 136.86016548 21.48391844 134.31448399 21.36669922 129.84179688 C21.330112 128.71713013 21.29352478 127.59246338 21.25582886 126.43371582 C21.23070221 125.2284021 21.20557556 124.02308838 21.1796875 122.78125 C21.14191193 121.53500854 21.10413635 120.28876709 21.06521606 119.00476074 C20.96688132 115.69920255 20.88031129 112.39362634 20.8001709 109.08758545 C20.68481598 104.43142857 20.54945166 99.77582897 20.4133606 95.12023926 C20.34210593 92.64407466 20.2762219 90.16774841 20.21627808 87.69128418 C20.18599518 86.56661743 20.15571228 85.44195068 20.12451172 84.28320312 C20.08812088 82.80358093 20.08812088 82.80358093 20.05099487 81.29406738 C19.8796528 78.63471488 19.46203383 76.15886636 18.875 73.5625 C16.74808203 74.01184887 14.62349961 74.47226473 12.5 74.9375 C11.31664063 75.19273438 10.13328125 75.44796875 8.9140625 75.7109375 C5.79303033 76.31773965 5.79303033 76.31773965 3.875 78.5625 C0.875 78.8125 0.875 78.8125 -2.125 78.5625 C-4.125 76.5625 -4.125 76.5625 -4.3125 73.5 C-4.125 70.5625 -4.125 70.5625 -3.125 69.5625 C-1.4212092 69.33496643 0.29073499 69.16776762 2.00390625 69.02734375 C3.03837891 68.94033203 4.07285156 68.85332031 5.13867188 68.76367188 C6.22728516 68.67666016 7.31589844 68.58964844 8.4375 68.5 C10.0762207 68.36368164 10.0762207 68.36368164 11.74804688 68.22460938 C14.45672492 67.99987189 17.16568166 67.77935911 19.875 67.5625 C19.875 65.5825 19.875 63.6025 19.875 61.5625 C18.67875 61.541875 17.4825 61.52125 16.25 61.5 C15.57710937 61.48839844 14.90421875 61.47679687 14.2109375 61.46484375 C11.79148744 61.51366125 11.79148744 61.51366125 9.11328125 62.0546875 C5.29274592 62.65380643 1.54388474 62.74644573 -2.3125 62.75 C-3.02341797 62.76224609 -3.73433594 62.77449219 -4.46679688 62.78710938 C-8.23873295 62.79775454 -9.90864543 62.70673638 -13.125 60.5625 C-13.3125 57.9375 -13.3125 57.9375 -13.125 55.5625 C-6.01793126 51.57085865 2.9446565 52.41064236 10.875 52.5625 C10.875 51.9025 10.875 51.2425 10.875 50.5625 C12.195 50.5625 13.515 50.5625 14.875 50.5625 C14.31232422 49.83160156 14.31232422 49.83160156 13.73828125 49.0859375 C8.24375601 41.47387483 5.53366401 33.09988599 2.859375 24.171875 C2.53453125 23.31078125 2.2096875 22.4496875 1.875 21.5625 C0.55196283 21.1903958 -0.78237935 20.85619827 -2.125 20.5625 C-4.08035176 16.73681178 -4.54539287 13.12596256 -4.875 8.875 C-4.97296875 7.73675781 -5.0709375 6.59851563 -5.171875 5.42578125 C-5.10351767 1.25028775 -4.01635021 0.72294304 0 0 Z " fill="#0B0B0B" transform="translate(59.125,22.4375)"/>
<path d="M0 0 C2.64 0 5.28 0 8 0 C8 0.99 8 1.98 8 3 C6.02 3 4.04 3 2 3 C2 2.34 2 1.68 2 1 C1.34 0.67 0.68 0.34 0 0 Z " fill="#303030" transform="translate(125,87)"/>
</svg>
