<?xml version="1.0" standalone="no"?>
<!DOCTYPE svg PUBLIC "-//W3C//DTD SVG 20010904//EN"
 "http://www.w3.org/TR/2001/REC-SVG-20010904/DTD/svg10.dtd">
<svg version="1.0" xmlns="http://www.w3.org/2000/svg"
 width="1024.000000pt" height="1024.000000pt" viewBox="0 0 1024.000000 1024.000000"
 preserveAspectRatio="xMidYMid meet">
<metadata>
Created by potrace 1.16, written by Peter Selinger 2001-2019
</metadata>
<g transform="translate(0.000000,1024.000000) scale(0.100000,-0.100000)"
fill="#000000" stroke="none">
<path d="M0 5120 l0 -5120 5120 0 5120 0 0 5120 0 5120 -5120 0 -5120 0 0
-5120z m3620 3820 c25 -13 48 -23 53 -22 4 1 7 -2 7 -8 0 -5 20 -21 45 -35 91
-54 293 -295 315 -377 6 -20 26 -60 45 -88 60 -90 143 -302 175 -450 11 -55
33 -132 49 -172 15 -40 36 -107 45 -148 22 -93 57 -193 91 -260 14 -28 41 -88
59 -133 30 -74 173 -345 230 -436 40 -63 68 -123 86 -185 15 -53 54 -152 106
-274 11 -26 29 -40 80 -64 64 -30 68 -30 132 -20 36 6 78 20 92 30 14 10 68
89 121 174 96 155 186 286 267 387 24 30 59 84 77 120 20 40 53 85 84 113 39
36 62 70 92 135 60 131 218 413 255 455 18 20 38 47 45 60 6 12 25 38 41 56
15 18 42 61 59 95 17 34 57 88 88 122 72 75 101 117 101 144 0 20 59 116 121
196 17 22 49 72 72 110 44 77 90 138 151 203 37 38 44 42 89 42 43 0 54 -5 84
-35 31 -31 34 -38 29 -80 -5 -49 -27 -81 -115 -173 -29 -29 -68 -78 -88 -110
-20 -31 -57 -86 -83 -122 -26 -36 -64 -98 -83 -137 -20 -40 -51 -97 -70 -125
-88 -135 -124 -196 -136 -228 -8 -19 -26 -57 -42 -85 -15 -27 -37 -78 -48
-112 -12 -34 -57 -137 -101 -228 -44 -91 -80 -168 -80 -170 0 -5 -114 -284
-136 -333 -9 -18 -24 -38 -35 -45 -34 -20 -69 -100 -69 -156 0 -44 -4 -53 -35
-82 -33 -31 -83 -121 -100 -179 -4 -14 -14 -33 -22 -42 -29 -33 -6 -41 96 -34
53 4 132 12 176 17 44 5 100 12 125 15 25 3 81 12 125 20 55 10 117 13 195 9
63 -3 167 -7 231 -10 117 -4 165 -8 294 -26 39 -5 166 -12 284 -16 l214 -6 34
-30 c67 -59 22 -108 -109 -115 -53 -3 -95 -11 -117 -23 -28 -15 -60 -18 -203
-18 -94 -1 -174 -4 -179 -7 -5 -3 -44 -9 -87 -14 -42 -5 -106 -13 -142 -19
-36 -5 -119 -17 -185 -27 -66 -9 -147 -22 -180 -30 -33 -7 -87 -18 -119 -25
-33 -6 -96 -22 -140 -35 -49 -15 -105 -24 -145 -24 -83 0 -238 -30 -367 -70
-54 -18 -105 -35 -112 -38 -7 -4 -22 -34 -34 -67 -11 -33 -24 -64 -29 -70 -5
-5 -9 -19 -9 -31 0 -13 -4 -25 -9 -29 -17 -10 -24 -95 -12 -136 16 -54 35 -71
67 -59 14 6 42 10 62 10 21 0 47 7 58 15 16 10 30 12 52 6 22 -7 46 -5 79 5
32 10 65 13 98 9 97 -13 339 -14 395 -1 30 7 95 14 145 15 58 2 100 8 120 19
40 21 171 20 290 -2 93 -17 243 -22 321 -10 32 4 54 2 80 -11 31 -14 52 -16
130 -10 63 5 105 3 129 -5 19 -6 66 -15 103 -18 58 -6 67 -10 70 -28 6 -39
-22 -48 -154 -51 -69 -1 -171 -9 -227 -17 -56 -8 -136 -18 -177 -21 -41 -3
-151 -17 -245 -30 -93 -13 -210 -26 -260 -30 -49 -3 -155 -15 -235 -25 -80
-10 -197 -22 -260 -25 -254 -13 -580 -88 -648 -148 -33 -30 -78 -116 -108
-204 -23 -68 -27 -102 -35 -288 -5 -115 -11 -226 -14 -245 -21 -155 -35 -293
-35 -353 -1 -80 -25 -301 -35 -317 -12 -19 -35 -184 -35 -250 0 -58 -4 -103
-26 -280 -3 -25 -14 -103 -26 -175 -17 -109 -21 -188 -25 -480 -3 -342 -4
-352 -30 -445 -22 -77 -27 -116 -27 -206 0 -121 12 -164 49 -188 27 -18 65
-112 65 -161 0 -61 -21 -135 -41 -145 -10 -6 -54 -13 -97 -17 -97 -7 -140 10
-168 65 -10 20 -24 44 -30 52 -7 8 -26 65 -44 125 -41 143 -48 240 -50 735 -1
217 -2 429 -3 470 0 41 0 125 2 185 1 61 -3 135 -9 165 -6 30 -13 105 -15 165
-2 61 -9 148 -15 195 -8 59 -8 207 -2 487 10 397 9 402 -13 490 -17 67 -21
107 -17 166 3 59 1 82 -10 95 -24 27 -29 58 -37 210 -10 174 -14 182 -87 157
-27 -9 -66 -27 -88 -41 -34 -23 -44 -25 -98 -19 -61 7 -64 7 -298 -49 -126
-29 -258 -89 -321 -145 -82 -72 -188 -114 -232 -93 -12 6 -38 13 -58 17 -48 7
-123 73 -154 136 -57 111 -8 250 110 312 37 19 58 21 250 23 116 2 225 5 242
9 18 3 68 10 110 15 43 6 110 15 148 20 39 6 150 13 248 15 138 4 187 9 215
22 20 9 48 19 62 23 34 7 36 34 7 116 -13 38 -24 89 -25 114 -4 68 -32 168
-51 176 -9 3 -72 8 -141 9 -69 1 -146 6 -172 10 -41 6 -56 3 -112 -25 -88 -42
-158 -49 -214 -21 l-43 22 -30 -22 c-75 -53 -252 -71 -449 -44 -200 28 -211
28 -270 8 -48 -16 -64 -17 -120 -7 -81 13 -110 23 -110 35 0 5 -9 9 -19 9 -11
0 -23 5 -26 11 -4 6 -13 8 -20 5 -7 -2 -23 7 -36 21 -22 23 -24 33 -24 133 0
96 2 111 19 123 10 8 24 29 30 48 8 26 19 36 44 44 17 5 32 15 32 21 0 7 12
22 26 33 22 17 41 21 103 21 42 0 102 6 134 14 31 7 72 11 90 8 72 -13 312 -4
392 13 56 13 126 19 232 19 137 1 155 3 180 22 61 45 90 54 178 54 69 0 87 3
92 16 10 27 -15 87 -64 152 -181 238 -284 410 -307 510 -20 88 -87 256 -164
408 -33 65 -72 147 -86 181 -14 35 -37 86 -50 115 -13 29 -29 69 -35 88 -7 19
-29 69 -49 110 -35 70 -40 75 -77 83 -93 19 -168 111 -136 169 14 28 8 48 -42
130 -42 70 -53 136 -31 184 20 42 13 94 -27 188 -16 37 -29 75 -29 85 0 9 -6
28 -14 43 -13 24 -20 72 -17 120 2 35 70 97 124 112 29 9 72 21 97 28 68 20
203 8 260 -22z"/>
</g>
</svg>
